<?xml version="1.0" encoding="UTF-8"?>
<svg version="1.1" xmlns="http://www.w3.org/2000/svg" width="400" height="400">
<path d="M0 0 C10.89 0 21.78 0 33 0 C33.33 25.74 33.66 51.48 34 78 C51.49 60.51 68.98 43.02 87 25 C90.84353532 26.92176766 92.79333212 28.5599133 95.765625 31.5703125 C96.65507812 32.46621094 97.54453125 33.36210938 98.4609375 34.28515625 C99.38132812 35.22230469 100.30171875 36.15945312 101.25 37.125 C102.19484856 38.07988637 103.14015633 39.03431859 104.0859375 39.98828125 C106.39518338 42.32109087 108.69963203 44.65844086 111 47 C109.43056316 50.78301227 107.06898723 53.17256547 104.18310547 56.04394531 C103.68725512 56.54003674 103.19140476 57.03612816 102.68052864 57.54725266 C101.0807028 59.14559048 99.47413406 60.7369498 97.8671875 62.328125 C96.87593028 63.3164402 95.88512356 64.30520746 94.89477539 65.29443359 C91.22697207 68.95176799 87.55045862 72.60035892 83.875 76.25 C75.66625 84.4175 67.4575 92.585 59 101 C83.75 101.33 108.5 101.66 134 102 C134 112.89 134 123.78 134 135 C108.59 135.33 83.18 135.66 57 136 C74.82 153.82 92.64 171.64 111 190 C106.40826155 195.3570282 101.80129393 200.47316946 96.875 205.5 C95.82119141 206.60988281 95.82119141 206.60988281 94.74609375 207.7421875 C94.06417969 208.43570313 93.38226563 209.12921875 92.6796875 209.84375 C92.06851074 210.47474609 91.45733398 211.10574219 90.82763672 211.75585938 C89 213 89 213 87.20675659 212.87745667 C84.04772856 211.62135519 82.25565123 209.61398528 79.86425781 207.20483398 C79.3582542 206.69919198 78.8522506 206.19354998 78.33091354 205.67258549 C76.69788333 204.0373196 75.07540831 202.39201449 73.453125 200.74609375 C72.44518003 199.73373687 71.43655734 198.72205429 70.42724609 197.71105957 C66.69327712 193.96137429 62.97242859 190.19864203 59.25 186.4375 C50.9175 178.043125 42.585 169.64875 34 161 C33.67 185.09 33.34 209.18 33 234 C22.11 234 11.22 234 0 234 C-0.33 209.58 -0.66 185.16 -1 160 C-27.235 186.235 -27.235 186.235 -54 213 C-57.84353532 211.07823234 -59.79333212 209.4400867 -62.765625 206.4296875 C-63.65507813 205.53378906 -64.54453125 204.63789063 -65.4609375 203.71484375 C-66.38132813 202.77769531 -67.30171875 201.84054687 -68.25 200.875 C-69.19484856 199.92011363 -70.14015633 198.96568141 -71.0859375 198.01171875 C-73.39518338 195.67890913 -75.69963203 193.34155914 -78 191 C-76.42122567 187.1760508 -74.00498287 184.76357901 -71.09130859 181.86425781 C-70.58554605 181.3582542 -70.07978352 180.8522506 -69.55869484 180.33091354 C-67.92656441 178.70027138 -66.28768822 177.0766058 -64.6484375 175.453125 C-63.63732353 174.44495297 -62.62666002 173.43632897 -61.61645508 172.42724609 C-57.8747583 168.69601916 -54.12435154 164.97353491 -50.375 161.25 C-42.00125 152.9175 -33.6275 144.585 -25 136 C-62.62 135.505 -62.62 135.505 -101 135 C-101 124.11 -101 113.22 -101 102 C-75.92 101.67 -50.84 101.34 -25 101 C-42.49 83.51 -59.98 66.02 -78 48 C-76.07823234 44.15646468 -74.4400867 42.20666788 -71.4296875 39.234375 C-70.53378906 38.34492187 -69.63789062 37.45546875 -68.71484375 36.5390625 C-67.77769531 35.61867187 -66.84054688 34.69828125 -65.875 33.75 C-64.92011363 32.80515144 -63.96568141 31.85984367 -63.01171875 30.9140625 C-60.67890913 28.60481662 -58.34155914 26.30036797 -56 24 C-52.1760508 25.57877433 -49.76357901 27.99501713 -46.86425781 30.90869141 C-46.3582542 31.41445395 -45.8522506 31.92021648 -45.33091354 32.44130516 C-43.70027138 34.07343559 -42.0766058 35.71231178 -40.453125 37.3515625 C-39.44495297 38.36267647 -38.43632897 39.37333998 -37.42724609 40.38354492 C-33.69601916 44.1252417 -29.97353491 47.87564846 -26.25 51.625 C-13.75125 64.185625 -13.75125 64.185625 -1 77 C-0.67 51.59 -0.34 26.18 0 0 Z " fill="#C08259" transform="translate(182,81)"/>
<path d="M0 0 C11.13971135 7.00046929 17.91115765 16.12340332 21.53125 28.74609375 C22.68572707 39.71362594 21.27519237 50.98074513 14.71875 60.12109375 C13.67906302 61.34911113 12.61660537 62.5582472 11.53125 63.74609375 C10.77908203 64.65101563 10.77908203 64.65101563 10.01171875 65.57421875 C4.4841456 71.76079697 -2.91026451 75.58575199 -10.90625 77.62109375 C-12.081875 77.66234375 -13.2575 77.70359375 -14.46875 77.74609375 C-15.41105469 77.81828125 -16.35335937 77.89046875 -17.32421875 77.96484375 C-28.39788103 78.49405103 -37.46461095 75.73788623 -45.90625 68.43359375 C-47.45808512 66.90187967 -48.98185815 65.34092694 -50.46875 63.74609375 C-51.06558594 63.11832031 -51.66242188 62.49054688 -52.27734375 61.84375 C-59.2472428 53.62239776 -61.28074322 42.76309069 -60.90625 32.23046875 C-59.28130198 19.28891846 -52.42721328 10.46805222 -42.59375 2.37109375 C-30.06854196 -6.32490868 -13.56876357 -6.8917296 0 0 Z " fill="#F3E7DF" transform="translate(217.46875,163.25390625)"/>
<path d="M0 0 C4.19767513 4.19767513 5.87401449 8.3121748 6.1875 14.1875 C5.97044499 19.72712131 4.09850525 24.21490119 0.32421875 28.2890625 C-5.15988259 33.13547764 -10.33809403 34.26720577 -17.4609375 34.1328125 C-23.12960727 33.35475979 -26.78073843 30.29659113 -30.625 26.25 C-34.14685998 20.83175387 -35.08423816 16.14582588 -34.25 9.75 C-32.35117538 3.14016745 -28.15746896 -0.91551069 -22.25 -4.25 C-13.80844669 -6.95457533 -7.11322587 -4.92454099 0 0 Z " fill="#C08259" transform="translate(364.25,185.25)"/>
<path d="M0 0 C5.45692651 2.89673852 9.54284892 7.62978713 11.8984375 13.31640625 C12.71460441 19.42816774 12.41773663 25.1239799 9.3046875 30.52734375 C5.86883076 34.89851704 1.42227176 38.31307508 -4.1015625 39.31640625 C-10.75622825 39.81864517 -15.14513061 38.10401623 -20.7890625 34.69140625 C-24.9069568 30.46221751 -27.28146824 25.19028315 -27.5390625 19.25390625 C-26.63478104 11.11537312 -24.37395786 6.93114406 -18.0390625 1.6640625 C-13.06579656 -1.79516482 -5.65453568 -1.83930064 0 0 Z " fill="#C08259" transform="translate(206.1015625,27.68359375)"/>
<path d="M0 0 C4.4864542 3.84553217 8.22302914 7.97814419 8.9609375 13.984375 C9.04604351 20.55455896 8.91708644 26.01574825 4.625 31.25 C0.12544324 35.68296713 -4.11212033 37.64162257 -10.4375 37.9375 C-16.18555744 37.61572579 -20.14464803 36.16699257 -24.375 32.25 C-28.39312749 27.74969721 -30.1608995 24.03330653 -30.625 18 C-30.17854971 11.30324563 -28.55947766 6.98024518 -23.5625 2.375 C-16.24809535 -3.43935433 -8.39266176 -4.35175054 0 0 Z " fill="#C08259" transform="translate(209.375,331.75)"/>
<path d="M0 0 C4.28804599 3.70331245 7.62786425 7.35146629 8.43359375 13.0859375 C8.44419192 22.00959895 7.58736878 26.33110011 1.25 32.8125 C-4.56401799 36.72578134 -9.98550831 37.56174059 -16.89453125 36.5390625 C-22.37306202 35.136396 -25.8972712 31.54328146 -29 27 C-31.48528063 22.52649487 -31.74877918 17.9892339 -31 13 C-28.8987342 6.42254937 -26.0178605 2.20795802 -19.96484375 -1.16015625 C-12.97569727 -4.14756478 -6.68531898 -3.5902639 0 0 Z " fill="#C08259" transform="translate(317,76)"/>
<path d="M0 0 C4.68540147 2.46654395 8.48014655 6.26517772 10.55859375 11.15625 C12.49146513 17.59488777 12.16682326 23.67111356 9.0234375 29.62109375 C5.05076976 34.36622466 1.03753587 37.67279379 -5.19140625 38.6015625 C-11.71402124 39.02570442 -16.95723294 37.14334144 -22.2265625 33.30859375 C-27.19381235 27.56840799 -28.73693079 21.836526 -28.2265625 14.30859375 C-24.01587715 1.45492268 -12.91980481 -4.01193939 0 0 Z " fill="#C08259" transform="translate(99.2265625,73.69140625)"/>
<path d="M0 0 C3.66126244 2.61881967 5.98236239 6.10018918 7.6875 10.20703125 C8.37172211 16.58718028 8.63977318 22.89616416 4.6875 28.20703125 C-0.70702221 33.60155346 -4.31885893 36.33920271 -12.125 36.45703125 C-16.96820094 36.39867943 -20.29845249 36.14413918 -24.3125 33.20703125 C-29.1269918 28.17369891 -31.3603599 24.30668491 -31.6875 17.39453125 C-31.54748136 11.51374848 -29.91281757 7.00682523 -25.88671875 2.671875 C-18.32078424 -4.0338499 -8.79282995 -5.01687677 0 0 Z " fill="#C08259" transform="translate(103.3125,289.79296875)"/>
<path d="M0 0 C4.44753793 3.16459429 7.28851674 5.7704678 9 11 C9.88116863 17.94165061 9.71708312 23.616358 5.5 29.37890625 C1.82776787 33.34759462 -2.2545287 35.71528446 -7.63671875 36.2734375 C-14.84323554 36.51334715 -19.51032627 35.82666965 -25 31 C-28.85790374 27.04057247 -30.95270752 23.22114363 -31.03515625 17.60546875 C-30.58691311 10.31331814 -28.446648 6.340272 -23.125 1.25 C-15.52742544 -4.22025368 -8.22310969 -4.33582147 0 0 Z " fill="#C08259" transform="translate(58,183)"/>
<path d="M0 0 C4.24333908 3.05520414 7.13098998 6.41706046 9.125 11.25 C10.01350612 18.32063819 10.06957659 24.80869577 5.671875 30.6640625 C1.56475419 34.87489848 -2.98669297 36.82159944 -8.83203125 37.28515625 C-15.06238526 37.17794174 -20.04126757 35.20487199 -24.875 31.25 C-29.53539186 25.20408623 -30.7530425 19.76901179 -29.875 12.25 C-28.03134929 6.35031773 -24.93125567 2.68825385 -19.875 -0.75 C-13.60523427 -3.88488286 -6.1487425 -3.25288313 0 0 Z " fill="#C08259" transform="translate(315.875,289.75)"/>
</svg>
